<?xml version="1.0" standalone="no"?>
<!DOCTYPE svg PUBLIC "-//W3C//DTD SVG 20010904//EN"
 "http://www.w3.org/TR/2001/REC-SVG-20010904/DTD/svg10.dtd">
<svg version="1.0" xmlns="http://www.w3.org/2000/svg"
 width="542.000000pt" height="461.000000pt" viewBox="0 0 542.000000 461.000000"
 preserveAspectRatio="xMidYMid meet">

<g transform="translate(0.000000,461.000000) scale(0.100000,-0.100000)"
fill="#000000" stroke="none">
<path d="M2100 4589 c-280 -34 -523 -106 -775 -229 -627 -307 -1087 -882
-1251 -1565 -47 -198 -58 -311 -58 -590 0 -564 87 -1007 269 -1380 213 -437
527 -693 963 -785 129 -28 443 -39 1108 -40 557 0 579 2 645 57 40 34 71 102
71 156 -1 23 -28 191 -62 372 -33 182 -88 476 -121 655 -33 179 -68 371 -79
428 -26 135 -26 137 13 153 67 28 205 130 283 211 205 212 304 455 304 748 0
176 -35 332 -107 474 l-29 58 68 195 c37 108 68 210 68 227 0 57 -54 115 -110
116 -14 0 -141 -16 -283 -37 l-258 -37 -72 24 c-130 41 -180 50 -322 56 -159
7 -259 -6 -401 -52 l-85 -28 -262 37 c-144 21 -274 38 -288 37 -46 0 -109 -67
-109 -115 0 -9 32 -107 70 -218 l71 -202 -41 -88 c-220 -472 -60 -1044 373
-1336 40 -26 92 -58 117 -71 25 -12 47 -24 49 -26 2 -1 -2 -25 -8 -51 -6 -26
-33 -167 -61 -313 -65 -339 -151 -785 -196 -1015 -27 -136 -34 -193 -29 -233
l7 -53 -34 5 c-18 3 -73 8 -122 11 -193 13 -418 93 -583 207 -322 222 -551
654 -642 1210 -37 233 -45 340 -46 633 0 311 8 388 60 596 77 305 228 607 425
854 141 175 371 378 571 502 538 335 1230 420 1834 226 670 -215 1192 -718
1429 -1376 74 -202 126 -475 126 -657 0 -117 11 -144 61 -148 58 -5 69 14 69
122 0 393 -152 876 -388 1231 -369 555 -923 913 -1598 1031 -106 19 -520 27
-634 13z"/>
<path d="M3330 1556 l0 -366 80 0 79 0 3 138 3 137 65 6 c145 12 217 98 208
245 -5 82 -42 138 -113 174 -45 22 -65 25 -187 28 l-138 4 0 -366z m243 204
c52 -41 43 -120 -18 -145 -63 -27 -65 -25 -65 75 l0 90 29 0 c15 0 40 -9 54
-20z"/>
<path d="M4360 1755 l0 -65 -30 0 -30 0 0 -65 0 -65 30 0 30 0 0 -185 0 -185
80 0 80 0 0 185 0 185 30 0 30 0 0 65 0 65 -30 0 -30 0 0 65 0 65 -80 0 -80 0
0 -65z"/>
<path d="M4690 1755 l0 -65 -30 0 -30 0 0 -65 0 -65 30 0 30 0 0 -185 0 -185
75 0 75 0 0 185 0 185 30 0 30 0 0 65 0 65 -30 0 -30 0 0 65 0 65 -75 0 -75 0
0 -65z"/>
<path d="M3947 1680 c-75 -41 -113 -137 -105 -269 8 -144 69 -221 179 -229 73
-5 99 1 140 35 29 24 68 92 69 118 0 6 -24 9 -60 7 -48 -3 -66 -9 -85 -28 -29
-29 -45 -30 -75 -6 -16 13 -23 30 -24 58 l-1 39 130 2 129 1 -2 49 c-6 107
-33 167 -95 210 -53 37 -145 43 -200 13z m133 -110 c11 -11 20 -33 20 -50 l0
-30 -61 0 -61 0 6 33 c6 33 38 67 62 67 8 0 23 -9 34 -20z"/>
<path d="M4943 1683 c2 -5 39 -118 82 -252 l77 -243 -27 -91 c-15 -50 -29 -97
-32 -104 -4 -11 10 -13 73 -11 l78 3 103 340 c56 187 103 346 103 353 0 8 -21
12 -73 12 l-74 0 -31 -102 c-17 -57 -34 -118 -37 -137 -9 -44 -14 -35 -55 117
l-33 122 -79 0 c-44 0 -77 -3 -75 -7z"/>
<path d="M3425 1063 c-39 -10 -87 -56 -111 -107 -20 -42 -24 -67 -24 -141 0
-132 25 -199 93 -249 33 -24 116 -28 165 -7 32 13 32 14 32 82 l0 69 -24 -11
c-36 -17 -74 -3 -96 34 -55 89 13 216 96 178 l24 -11 0 69 0 69 -40 16 c-40
16 -75 18 -115 9z"/>
<path d="M4433 1025 c-23 -25 -45 -45 -48 -45 -3 0 -5 17 -5 38 l0 37 -70 0
-70 0 0 -247 0 -248 74 0 75 0 3 156 3 156 29 25 c23 19 38 24 68 21 l38 -4 0
78 c0 78 0 78 -27 78 -18 0 -40 -14 -70 -45z"/>
<path d="M4715 1051 c-82 -37 -119 -114 -120 -246 0 -79 3 -97 28 -148 36 -72
83 -106 158 -113 89 -9 156 36 194 129 l15 37 -64 0 c-57 0 -65 -3 -80 -25
-36 -54 -106 -20 -106 52 l0 33 131 0 132 0 -7 73 c-12 119 -57 186 -145 216
-48 16 -90 13 -136 -8z m131 -136 c25 -60 21 -65 -46 -65 l-60 0 0 32 c0 40
25 68 62 68 24 0 32 -6 44 -35z"/>
<path d="M3699 1007 c-49 -32 -73 -86 -64 -144 6 -43 17 -57 130 -172 l123
-125 122 114 c132 124 150 149 150 207 0 116 -128 183 -224 118 l-37 -25 -37
25 c-48 33 -115 34 -163 2z"/>
</g>
</svg>
